<?xml version="1.0" encoding="utf-8"?>
<svg viewBox="142.7 23.999 225.41 195.501" xmlns="http://www.w3.org/2000/svg">
  <defs>
    <clipPath id="clip-path">
      <path class="cls-1" d="M330.69 200.7v.43l-149.03.01v-.43l149.03-.01"/>
    </clipPath>
    <clipPath id="clip-path-2">
      <path class="cls-1" d="M326.64 99.72a5.6 5.6 0 0 0-5.6-5.59h-129.6a5.6 5.6 0 0 0-5.6 5.6v84.67a5.6 5.6 0 0 0 5.6 5.6H321a5.6 5.6 0 0 0 5.6-5.6V99.72"/>
    </clipPath>
    <style>.cls-1{fill:none}.cls-2{fill:#e6edf2}.cls-3{fill:#d9e8f4}.cls-4{fill:#c4d9e9}.cls-5{fill:#00467d}.cls-6{fill:#4495d1}.cls-7{fill:#666}.cls-8{fill:#001c32}.cls-9{fill:#1b3c54}.cls-10{fill:#b2b2b2}.cls-11{fill:#003157}.cls-12{fill:#2f6892}.cls-13{fill:#001423}.cls-14{fill:#132a3b}.cls-15{fill:#a1a5a9}.cls-16{fill:#0066b3}.cls-17{fill:#2f7dc1}.cls-18{fill:#00234f}.cls-19{clip-path:url(#clip-path)}.cls-20{fill:#0a090d}.cls-21{fill:#4d6e61}.cls-22{fill:#ffcb1f}.cls-23{fill:#caaf33}.cls-24{clip-path:url(#clip-path-2)}.cls-25{fill:#002757}.cls-26{fill:#2670ba}.cls-27{fill:#001934}.cls-28{fill:#000910}.cls-29{fill:#474747}.cls-30{fill:#18436c}.cls-31{fill:#ffb20e}.cls-32{fill:#fff}</style>
  </defs>
  <path class="cls-3" d="M154.48 190.28h-1.13l-.11.13 1.24-.13"/>
  <path class="cls-5" d="M326.09 184.39a5 5 0 0 1-5 5h-129.6a5 5 0 0 1-5-5V99.74a5 5 0 0 1 5-5H321a5 5 0 0 1 5 5v84.67"/>
  <path class="cls-6" d="M191.45 190a5.6 5.6 0 0 1-5.6-5.6V99.74a5.61 5.61 0 0 1 5.6-5.6H321a5.61 5.61 0 0 1 5.6 5.59v84.67a5.6 5.6 0 0 1-5.59 5.6H191.45M321 95.24H191.44a4.49 4.49 0 0 0-4.44 4.5v84.66a4.51 4.51 0 0 0 4.49 4.49h129.6a4.49 4.49 0 0 0 4.48-4.49V99.72a4.49 4.49 0 0 0-4.57-4.48"/>
  <path class="cls-8" d="M275.09 95.24h-12.85a21.5 21.5 0 0 1 2.13 7.2 18.81 18.81 0 0 1-1.18 9.08 20.07 20.07 0 0 0 11.9-16.28"/>
  <path class="cls-9" d="M275.18 94.14h-13.52c.2.37.4.74.58 1.11h12.85q.06-.55.09-1.11"/>
  <path class="cls-10" d="M185.84 99.74v20.37-20.37m5.16-5.58a5.57 5.57 0 0 0-3.5 1.62 5.51 5.51 0 0 0-1.63 3.84 5.58 5.58 0 0 1 5.13-5.46m.19 0"/>
  <path class="cls-11" d="M198.66 95.25h-7.22a4.49 4.49 0 0 0-4.44 4.49v20.37h16.9a68.22 68.22 0 0 1-5-17.67 44.67 44.67 0 0 1-.21-7.19"/>
  <path class="cls-12" d="M198.73 94.14H191a5.58 5.58 0 0 0-5.13 5.46V120.09H187V99.74a4.49 4.49 0 0 1 4.48-4.49h7.22c0-.37 0-.74.07-1.11"/>
  <path class="cls-13" d="M209.76 95.25h-11.1a44.67 44.67 0 0 0 .21 7.19 68.22 68.22 0 0 0 5 17.67h12c-3.41-9-5.74-17.62-6.13-24.86"/>
  <path class="cls-14" d="M209.71 94.14h-11c0 .37 0 .74-.07 1.11h11.1v-1.11"/>
  <path class="cls-11" d="M295.19 173.11h-26c-2.67 5.48-5.23 10.43-7.43 14.54h41.81l-8.39-14.54"/>
  <path class="cls-13" d="M269.2 173.11h-2.13c-3.85 6.24-7.17 11.32-9.32 14.54h4c2.2-4.11 4.76-9.06 7.43-14.54"/>
  <path class="cls-10" d="M185.85 173.11v11.29a5.62 5.62 0 0 0 .71 2.74 5.62 5.62 0 0 1-.71-2.74v-11.29"/>
  <path class="cls-15" d="M186.56 187.14a6.17 6.17 0 0 0 .56.81 6.17 6.17 0 0 1-.56-.81"/>
  <path class="cls-11" d="M234.89 173.11H187v11.29a4.43 4.43 0 0 0 1.32 3.17 3.28 3.28 0 0 0 .34.31 18.69 18.69 0 0 1 2.83-.22h54.06c-3.1-4.11-6.75-9.05-10.62-14.54"/>
  <path class="cls-12" d="M187 173.11h-1.11v11.29a5.62 5.62 0 0 0 .71 2.74 6.17 6.17 0 0 0 .56.81l.2.24a9.89 9.89 0 0 1 1.3-.31 3.28 3.28 0 0 1-.34-.31 4.43 4.43 0 0 1-1.32-3.17v-11.29"/>
  <path class="cls-13" d="M243.21 173.11h-8.32c3.87 5.49 7.52 10.43 10.62 14.54h7c-2.15-3.22-5.47-8.3-9.32-14.54"/>
  <path class="cls-11" d="M250.23 95.24h-15a20.1 20.1 0 0 0 25.05 17.3l-10-17.31"/>
  <path class="cls-12" d="M249.59 94.14H235.1c0 .37.05.74.08 1.11h15l-.64-1.1"/>
  <path class="cls-16" d="M326.39 193.46c-.43-1.13-4.79-1.17-5.31-1.17H191.49c-.52 0-4.82 0-5.3 1.15l-27.82 20v4.7c0 1.32 4.8 1.36 5.35 1.36H348.8c.55 0 5.31 0 5.31-1.32v-4.63l-27.75-20.07"/>
  <path class="cls-5" d="M354.14 218.16c0 .92-2.3 1.22-4.28 1.3v-5.28c1.13 0 4.2.19 4.28-.7z"/>
  <path class="cls-17" d="M162.27 219.45a13.67 13.67 0 0 1-2.53-.35v-5.26a14 14 0 0 0 2.53.34z"/>
  <path class="cls-17" d="M326.36 188.81c-1.13-1.13-4.8-1.17-5.32-1.17H191.45c-.52 0-4.21.06-5.31 1.16l-27.38 23.86a1.21 1.21 0 0 0-.39.82c0 1.26 4.8 1.35 5.34 1.35h185.08c.55 0 5.35 0 5.35-1.35a1.05 1.05 0 0 0-.42-.71l-27.36-24"/>
  <path class="cls-16" d="M280 203c-.21-.23-1.39-.24-1.53-.24h-44.55c-.14 0-1.32 0-1.53.24l-6.39 9.17-.1.12v.05c-.15.35 1.35.36 1.52.36h57.79c.17 0 1.66 0 1.51-.37l-.13-.15z"/>
  <path class="cls-18" d="M181.66 200.71h149.03v.43H181.66z"/>
  <path class="cls-19 cls-20" d="M292.23 200.7v.43h-72.1v-.43h72.11"/>
  <path class="cls-5" d="M318.68 189.09l12.01 11.61-149.03.01 12.46-11.61 124.56-.01"/>
  <path class="cls-21" d="M254.32 190.31c-12.22.08-22 1.87-22 4.07s10.21 4.07 22.81 4.07 22.87-1.82 22.87-4.07-9.77-4-22-4.07l-.65.95c5.71 0 10.31.85 10.31 1.87s-4.73 1.87-10.52 1.87-10.48-.83-10.48-1.87 4.6-1.85 10.31-1.87l-.65-.95"/>
  <path class="cls-22" d="M255.14 47.7a45.43 45.43 0 0 0-45.44 45.44c0 33.05 45.44 98.37 45.44 98.37s45.44-65.32 45.44-98.37a45.44 45.44 0 0 0-45.44-45.44m0 65.5a20.06 20.06 0 1 1 20.06-20.06 20.06 20.06 0 0 1-20.06 20.06"/>
  <path class="cls-23" d="M255.31 191.26l-.17.25-.17-.25c-5.71 0-10.31.85-10.31 1.87s4.69 1.87 10.48 1.87 10.48-.83 10.48-1.87-4.6-1.85-10.31-1.87"/>
  <path class="cls-22" d="M255.14 191.26H255l.17.25.17-.25h-.17"/>
  <g class="cls-24">
    <path class="cls-25" d="M325.53 120.11h-31.14a254.06 254.06 0 0 1-13.28 28.62l14.08 24.38h30.34v-53"/>
    <path class="cls-26" d="M326.64 120.11h-1.11v53h1.11v-53"/>
    <path class="cls-27" d="M281.11 148.73c-1.5 2.83-3 5.61-4.55 8.3-2.41 5.65-4.93 11.08-7.36 16.08h26l-14.08-24.38"/>
    <path class="cls-28" d="M276.56 157c-3.29 5.85-6.55 11.31-9.49 16.08h2.13c2.43-5 4.95-10.43 7.36-16.08"/>
    <path class="cls-7" d="M185.85 120.11v53-53"/>
    <path class="cls-29" d="M185.85 120.11v53-53"/>
    <path class="cls-27" d="M203.86 120.11H187v53h47.93c-11.1-15.71-24-35.81-31-53"/>
    <path class="cls-30" d="M186.96 120.11h-1.11v53h1.11v-53"/>
    <path class="cls-28" d="M215.89 120.11h-12c7 17.19 19.93 37.29 31 53h8.32c-8.76-14.21-20.32-34.51-27.32-53"/>
    <path class="cls-31" d="M294.39 120.11h-78.5c7 18.49 18.56 38.79 27.32 53h4l7.9 3.9 7.9-3.9h4.06c2.94-4.77 6.2-10.23 9.49-16.08 1.52-2.69 3.05-5.47 4.55-8.3a254.06 254.06 0 0 0 13.28-28.62"/>
  </g>
  <path class="cls-22" d="M225.2 67.86a1.84 1.84 0 0 1-1.31-.54 1.87 1.87 0 0 1 0-2.64 43.74 43.74 0 0 1 62.2-.35 1.87 1.87 0 1 1-2.67 2.67 40 40 0 0 0-56.89.32 1.83 1.83 0 0 1-1.33.54z"/>
  <path class="cls-22" d="M 303.6 60.71 C 303.094 60.71 302.611 60.504 302.26 60.14 C 276.595 33.912 234.454 33.687 208.51 59.64 C 207.434 60.596 205.726 60.029 205.436 58.619 C 205.317 58.041 205.478 57.441 205.87 57 C 233.285 29.578 277.815 29.821 304.93 57.54 C 305.938 58.567 305.457 60.301 304.063 60.661 C 303.912 60.7 303.756 60.72 303.6 60.72 L 303.6 60.71 Z"/>
  <path class="cls-22" d="M 321.87 55.8 C 321.366 55.803 320.882 55.601 320.53 55.24 C 284.907 18.846 226.427 18.536 190.42 54.55 C 189.4 55.566 187.663 55.097 187.293 53.706 C 187.121 53.06 187.307 52.372 187.78 51.9 C 225.261 14.419 286.129 14.742 323.21 52.62 C 323.938 53.353 323.938 54.537 323.21 55.27 C 322.853 55.621 322.37 55.812 321.87 55.8 Z"/>
  <path class="cls-16" d="M362.8 115.1l-214.8 7a5.32 5.32 0 0 0-5.3 5.31l10 35.4a5.32 5.32 0 0 0 5.3 5.3h89.23l7.9 7.9 7.9-7.9h89.77a5.32 5.32 0 0 0 5.31-5.3l10-42.4a5.33 5.33 0 0 0-5.31-5.31z"/>
  <path class="cls-32" d="M183.83 135.63l-2.86 14.31h-2.75l2.87-14.31h2.74zM196.76 136.65a3.58 3.58 0 0 1 1.25 2.93 6.17 6.17 0 0 1-.83 3.22 5.53 5.53 0 0 1-2.37 2.16 8.09 8.09 0 0 1-3.63.77h-3.12l-.84 4.21h-2.74l2.86-14.31h5.85a5.5 5.5 0 0 1 3.57 1.02zm-2.43 5.83a2.94 2.94 0 0 0 1-2.39 1.81 1.81 0 0 0-.7-1.55 3.4 3.4 0 0 0-2-.52h-3l-1.06 5.3h3a4.27 4.27 0 0 0 2.76-.84zM200.42 147.54a1.29 1.29 0 0 1 .35 1 1.64 1.64 0 0 1-.44 1.16 1.47 1.47 0 0 1-1.1.47 1.18 1.18 0 0 1-.91-.38 1.33 1.33 0 0 1-.35-1 1.54 1.54 0 0 1 .44-1.14 1.45 1.45 0 0 1 1.09-.45 1.22 1.22 0 0 1 .92.34zm1.21-6.07a1.29 1.29 0 0 1 .34.95 1.6 1.6 0 0 1-.44 1.16 1.43 1.43 0 0 1-1.09.47 1.16 1.16 0 0 1-.92-.38 1.37 1.37 0 0 1-.35-1 1.58 1.58 0 0 1 .44-1.14 1.49 1.49 0 0 1 1.1-.45 1.24 1.24 0 0 1 .92.39zM209.94 135.63h5.75l-2.78 14.31h-2.74l2.33-11.9h-2.99l.43-2.41zM227.36 141.3a19.57 19.57 0 0 1-2.54 2.57l-4.37 3.68h7l-.43 2.39h-10.64l.35-2 6.48-5.55a11.7 11.7 0 0 0 1.58-1.56 3 3 0 0 0 .73-1.33 1.8 1.8 0 0 0 0-.28 1.13 1.13 0 0 0-.52-1 2.66 2.66 0 0 0-1.47-.35 5.78 5.78 0 0 0-2.1.47 9.72 9.72 0 0 0-2.27 1.31l-.69-2.11a13.34 13.34 0 0 1 2.95-1.52 8.63 8.63 0 0 1 2.93-.54 5 5 0 0 1 3 .8 2.48 2.48 0 0 1 1.12 2.14 2.78 2.78 0 0 1 0 .57 5 5 0 0 1-1.11 2.31zM241.54 137.33l-5.17 4.19.71.08a4.63 4.63 0 0 1 2.69 1 2.83 2.83 0 0 1 1 2.23 4.41 4.41 0 0 1-.85 2.65 5.65 5.65 0 0 1-2.36 1.88 8.3 8.3 0 0 1-3.43.68 9 9 0 0 1-2.79-.44 6.47 6.47 0 0 1-2.2-1.17l1.48-2.13a4.65 4.65 0 0 0 1.68 1.09 5.46 5.46 0 0 0 2.06.38 4.49 4.49 0 0 0 2.69-.72 2.28 2.28 0 0 0 1-1.92 1.5 1.5 0 0 0-.74-1.34 3.83 3.83 0 0 0-2.09-.47H233l.3-1.66 4.6-3.66h-6l.41-2.33h9.57zM244.52 147.54a1.29 1.29 0 0 1 .35 1 1.64 1.64 0 0 1-.44 1.16 1.44 1.44 0 0 1-1.09.47 1.2 1.2 0 0 1-.92-.38 1.37 1.37 0 0 1-.35-1 1.58 1.58 0 0 1 .44-1.14 1.46 1.46 0 0 1 1.09-.45 1.22 1.22 0 0 1 .92.34zM259.01 144.21l-.43 2.35h-2.06l-.65 3.38h-2.56l.66-3.38h-6.83l.37-2.02 6.42-8.91h2.61l-6.05 8.58h3.92l.66-3.31h2.55l-.65 3.31h2.04zM265.82 138l-.57 2.84h1.88a5.26 5.26 0 0 1 3.4 1 3.31 3.31 0 0 1 1.24 2.67 5 5 0 0 1-.85 2.83 5.67 5.67 0 0 1-2.36 2 7.87 7.87 0 0 1-3.42.72 8.34 8.34 0 0 1-2.71-.46 7.37 7.37 0 0 1-2.33-1.24l1.47-2.14a5.58 5.58 0 0 0 1.72 1.11 5.2 5.2 0 0 0 2 .4 3.92 3.92 0 0 0 2.5-.75 2.35 2.35 0 0 0 .95-2 1.53 1.53 0 0 0-.67-1.33 3.6 3.6 0 0 0-2-.47h-1.94c-.81 0-1.43.08-1.9.12l1.49-7.75h9.22l-.45 2.39zM275.88 148.65a5.74 5.74 0 0 1-1.23-3.9 10.73 10.73 0 0 1 1-4.73 8.21 8.21 0 0 1 2.84-3.31 7.22 7.22 0 0 1 4.07-1.2 9 9 0 0 1 2.22.29 6.58 6.58 0 0 1 1.91.81l-1.43 2A4.17 4.17 0 0 0 284 138a5.39 5.39 0 0 0-1.6-.24 4.26 4.26 0 0 0-3.18 1.28 6.51 6.51 0 0 0-1.6 3.52 4.73 4.73 0 0 1 1.79-1.42 5.62 5.62 0 0 1 2.36-.48 3.84 3.84 0 0 1 2.81 1 3.58 3.58 0 0 1 1 2.67 5.56 5.56 0 0 1-.8 3 5.43 5.43 0 0 1-2.19 2 6.72 6.72 0 0 1-3.16.73 4.44 4.44 0 0 1-3.55-1.41zm6.17-1.74a2.85 2.85 0 0 0 .92-2.2 1.84 1.84 0 0 0-.58-1.45 2.3 2.3 0 0 0-1.59-.52 3.67 3.67 0 0 0-1.76.43 3.24 3.24 0 0 0-1.21 1.14 2.73 2.73 0 0 0-.44 1.5 1.85 1.85 0 0 0 .58 1.38 2.42 2.42 0 0 0 1.73.56 3.37 3.37 0 0 0 2.35-.84zM289.4 147.54a1.29 1.29 0 0 1 .35 1 1.64 1.64 0 0 1-.44 1.16 1.44 1.44 0 0 1-1.09.47 1.2 1.2 0 0 1-.92-.38 1.37 1.37 0 0 1-.35-1 1.58 1.58 0 0 1 .44-1.14 1.46 1.46 0 0 1 1.09-.45 1.21 1.21 0 0 1 .92.34zM294.21 135.63h11.03l-.36 2.05-8.28 12.26h-2.91l8.02-11.92h-5.48l-.41 2.02h-2.45l.84-4.41zM306.78 147.54a1.29 1.29 0 0 1 .34 1 1.6 1.6 0 0 1-.44 1.16 1.43 1.43 0 0 1-1.09.47 1.2 1.2 0 0 1-.92-.38 1.37 1.37 0 0 1-.35-1 1.58 1.58 0 0 1 .44-1.14 1.47 1.47 0 0 1 1.1-.45 1.24 1.24 0 0 1 .92.34zM320.52 136.35a2.71 2.71 0 0 1 1.11 2.31 3.42 3.42 0 0 1-.73 2.14 4.8 4.8 0 0 1-1.95 1.49 3.47 3.47 0 0 1 1.54 1.21 3.1 3.1 0 0 1 .55 1.82 4 4 0 0 1-.81 2.48 5.19 5.19 0 0 1-2.27 1.67 8.89 8.89 0 0 1-3.34.59 5.86 5.86 0 0 1-3.52-.93 3 3 0 0 1-1.28-2.52 3.87 3.87 0 0 1 1-2.62 5.93 5.93 0 0 1 2.63-1.7 2.87 2.87 0 0 1-1.6-2.61 3.56 3.56 0 0 1 .71-2.18 4.6 4.6 0 0 1 2-1.47 7.54 7.54 0 0 1 2.9-.52 5.05 5.05 0 0 1 3.06.84zm-7.13 7.83a2.25 2.25 0 0 0-.93 1.89 1.58 1.58 0 0 0 .66 1.36 3.18 3.18 0 0 0 1.89.48 4 4 0 0 0 2.53-.7 2.27 2.27 0 0 0 .92-1.91 1.57 1.57 0 0 0-.66-1.34 3.23 3.23 0 0 0-1.91-.48 4 4 0 0 0-2.5.7zm1.54-6.1a2 2 0 0 0-.8 1.7 1.36 1.36 0 0 0 .56 1.16 2.66 2.66 0 0 0 1.61.41 3.39 3.39 0 0 0 2.16-.61 2 2 0 0 0 .78-1.68 1.37 1.37 0 0 0-.55-1.18 2.67 2.67 0 0 0-1.59-.41 3.45 3.45 0 0 0-2.17.61zM326.07 147.58a5.66 5.66 0 0 0 1.59.23 4.15 4.15 0 0 0 3.15-1.28 6.53 6.53 0 0 0 1.61-3.5 4.93 4.93 0 0 1-1.79 1.41 5.42 5.42 0 0 1-2.34.49 3.83 3.83 0 0 1-2.8-1 3.65 3.65 0 0 1-1-2.69 5.69 5.69 0 0 1 .79-3 5.4 5.4 0 0 1 2.19-2 6.77 6.77 0 0 1 3.15-.72 4.41 4.41 0 0 1 3.49 1.41 5.74 5.74 0 0 1 1.24 3.9 10.57 10.57 0 0 1-1 4.71 8.18 8.18 0 0 1-2.84 3.32 7.09 7.09 0 0 1-4.05 1.21 8.13 8.13 0 0 1-2.21-.31 6.51 6.51 0 0 1-1.9-.81l1.43-2a4.06 4.06 0 0 0 1.29.63zm1.92-8.92a2.8 2.8 0 0 0-.92 2.2 1.84 1.84 0 0 0 .56 1.42 2.23 2.23 0 0 0 1.58.52 3.39 3.39 0 0 0 2.24-.75 3.06 3.06 0 0 0 1.1-1.86v-.45a1.85 1.85 0 0 0-.56-1.37 2.36 2.36 0 0 0-1.71-.55 3.32 3.32 0 0 0-2.28.84z"/>
</svg>